<svg class="img-fluid" xmlns="http://www.w3.org/2000/svg" width="256" height="384" viewBox="0 0 10240 15360">
    <g id="l3B5UjxUlkf66hbF4HR1cP4" fill="#ffffff" style="transform: none;">
        <g style="transform: none;">
            <path id="pOqyjdysI" d="M3465 13914 c-40 -9 -68 -23 -83 -40 -22 -25 -22 -28 -19 -287 3 -257 3 -263 29 -322 14 -33 29 -83 33 -111 l6 -50 -40 -16 c-33 -13 -41 -21 -45 -49 -6 -44 -28 -1653 -28 -2104 0 -476 -4 -657 -16 -740 -13 -82 -26 -342 -47 -900 -9 -220 -20 -458 -25 -530 -12 -158 -32 -327 -37 -321 -5 5 -25 149 -63 451 -17 132 -62 456 -100 720 -38 264 -78 563 -90 665 -11 102 -27 217 -35 255 -8 40 -19 195 -25 365 -11 318 -45 961 -89 1694 -27 451 -28 459 -50 477 -13 11 -32 19 -43 19 -19 0 -20 5 -15 43 3 23 18 71 33 107 27 63 28 73 36 338 7 205 6 277 -3 288 -52 63 -488 71 -609 11 -33 -16 -47 -30 -54 -54 -9 -28 -15 -32 -67 -42 -118 -24 -153 -76 -131 -201 15 -89 46 -154 85 -182 42 -29 53 -44 67 -93 7 -22 30 -75 52 -117 22 -42 37 -82 33 -88 -3 -5 -17 -10 -31 -10 -40 0 -70 -39 -78 -101 -25 -224 -76 -1520 -76 -1965 0 -249 11 -426 39 -629 10 -73 16 -159 14 -196 -3 -39 1 -96 10 -140 8 -41 13 -96 11 -124 -4 -45 -23 -605 -41 -1195 l-6 -215 -56 -1 c-73 -1 -138 -19 -178 -50 -17 -13 -38 -24 -46 -24 -18 0 -156 -90 -178 -116 -9 -10 -36 -68 -60 -129 l-44 -110 -3 -190 c-2 -104 1 -237 6 -295 10 -124 -9 -364 -58 -726 -40 -299 -59 -529 -67 -799 -5 -202 -3 -235 21 -402 22 -156 32 -267 49 -540 l4 -52 -43 -16 c-24 -9 -54 -25 -68 -36 -46 -36 -43 -57 100 -637 112 -455 189 -716 240 -813 62 -120 195 -197 683 -395 248 -101 295 -123 304 -144 43 -106 85 -185 109 -205 15 -13 47 -26 70 -30 77 -12 78 -13 78 -59 0 -44 -8 -59 -121 -227 -81 -120 -213 -372 -239 -454 -30 -97 -37 -248 -16 -345 21 -101 56 -168 123 -237 30 -32 70 -83 89 -114 98 -164 303 -259 561 -259 147 0 225 15 399 75 113 39 134 43 188 39 82 -8 96 4 103 84 7 76 -13 134 -61 181 l-34 33 43 91 c24 51 51 118 62 149 l18 56 90 24 90 23 -2 85 c-5 157 -39 252 -94 258 -26 3 -26 4 -33 111 -3 64 -18 156 -35 227 -16 65 -33 154 -37 197 -6 68 -10 82 -35 107 -29 28 -56 36 -150 42 l-36 3 56 102 56 102 205 87 c465 198 569 253 654 344 54 58 86 124 144 295 79 234 302 1079 302 1143 0 47 -23 70 -96 98 l-45 17 6 56 c20 170 48 339 75 436 66 242 85 340 149 800 26 180 30 197 40 170 18 -44 77 -240 101 -337 12 -46 39 -128 61 -183 45 -116 70 -211 93 -350 10 -55 28 -160 42 -234 13 -74 24 -139 24 -145 0 -6 -18 -21 -40 -34 -66 -37 -67 -18 30 -467 91 -424 123 -522 209 -635 54 -71 125 -118 258 -170 59 -23 109 -44 111 -45 2 -2 -12 -23 -31 -49 -57 -74 -72 -132 -72 -281 0 -126 2 -134 39 -235 128 -351 142 -403 181 -650 48 -299 192 -524 384 -600 92 -36 396 -61 491 -40 73 16 173 67 243 124 145 119 261 365 312 662 26 153 53 245 100 341 40 80 62 109 184 237 121 126 146 158 185 235 55 111 69 177 64 302 l-4 97 33 22 c54 37 94 89 134 175 53 112 73 194 124 485 24 140 55 291 69 335 28 87 33 147 14 162 -7 6 -35 18 -61 28 -27 10 -51 25 -54 33 -11 26 17 475 38 617 11 77 37 217 59 310 66 291 77 390 100 935 6 140 18 320 26 400 8 80 14 170 14 201 0 34 19 132 45 240 64 260 65 282 21 459 -20 80 -44 156 -53 169 -31 48 -143 151 -197 182 -31 17 -56 36 -56 42 0 25 123 876 194 1347 42 272 95 628 120 790 68 450 97 681 94 740 l-3 53 -78 33 c-121 52 -206 66 -457 74 -209 7 -235 10 -359 42 l-135 33 -32 190 c-18 105 -49 269 -69 365 -55 262 -105 547 -105 596 0 33 7 51 28 76 16 18 44 62 62 97 21 39 54 81 87 109 61 52 83 106 83 200 0 46 -4 58 -28 82 -25 25 -112 60 -149 60 -7 0 -13 6 -13 14 0 8 -10 27 -23 41 -34 40 -114 55 -305 55 -242 0 -258 -11 -249 -164 9 -154 37 -367 58 -446 38 -139 41 -199 35 -625 -3 -225 -9 -456 -12 -512 l-7 -103 -178 0 -177 0 -6 48 c-3 26 -15 164 -26 307 -43 561 -45 742 -9 864 25 85 49 304 49 455 0 139 -8 160 -68 175 -67 17 -215 23 -324 12 -123 -12 -184 -36 -194 -76 -4 -16 -15 -27 -33 -31 -194 -44 -231 -70 -231 -162 0 -97 43 -160 146 -215 40 -21 87 -60 138 -113 l76 -82 0 -60 c0 -58 -47 -343 -75 -452 -23 -92 -74 -356 -101 -520 -13 -85 -27 -167 -30 -181 -8 -41 -71 -50 -344 -48 -230 2 -238 1 -385 -30 -82 -18 -166 -40 -185 -49 -32 -16 -35 -21 -38 -68 -2 -30 20 -183 52 -370 30 -176 69 -418 86 -539 17 -121 51 -353 76 -515 25 -162 96 -653 159 -1091 280 -1947 357 -2320 591 -2844 l54 -119 -29 -31 -29 -30 -6 -210 c-4 -147 -12 -253 -29 -355 l-23 -145 -13 55 c-184 773 -235 937 -363 1170 -23 41 -117 223 -209 404 l-167 329 28 83 c16 45 34 109 41 141 6 32 28 112 47 178 60 201 54 305 -18 305 -27 0 -30 3 -30 30 0 23 -7 35 -32 50 -18 11 -43 20 -55 20 -17 0 -23 6 -23 23 0 31 -48 75 -90 84 -19 3 -39 12 -45 18 -16 20 -74 35 -133 35 -51 0 -58 -3 -111 -49 -31 -27 -66 -66 -76 -85 -22 -40 -27 -43 -45 -21 -8 9 -30 15 -57 15 -65 0 -93 -31 -93 -104 0 -30 4 -66 10 -81 7 -17 6 -48 -1 -93 -9 -53 -8 -94 4 -198 17 -147 31 -182 116 -299 60 -81 94 -162 93 -222 0 -68 -48 -240 -137 -492 -45 -130 -132 -387 -194 -572 -101 -307 -114 -354 -145 -535 -19 -110 -41 -217 -50 -239 -15 -38 -16 -24 -11 240 7 387 19 544 96 1195 21 184 39 361 39 393 0 55 -1 58 -32 73 l-33 15 -1 452 c0 436 -7 589 -39 887 -8 74 -26 277 -40 450 -14 173 -35 403 -46 510 -18 167 -21 279 -25 785 -5 650 -11 757 -79 1520 -24 270 -51 605 -60 745 -9 140 -20 265 -25 278 -6 12 -21 27 -35 34 -37 17 -30 30 28 58 46 22 56 33 87 95 21 41 47 76 64 86 15 9 74 29 131 44 57 15 132 42 167 59 54 27 66 38 88 81 15 32 26 72 28 113 4 62 4 63 -36 101 -81 77 -242 116 -459 109 -117 -3 -132 -2 -136 13 -7 26 -54 52 -121 66 -84 17 -373 16 -451 -3z m-1505 -5574 c0 -24 -4 -30 -22 -30 -12 0 -31 -8 -42 -17 -20 -17 -20 -17 -6 2 17 24 63 75 67 75 2 0 3 -13 3 -30z m6387 -428 c22 -66 22 -71 8 -158 -17 -102 -125 -512 -248 -944 -95 -330 -116 -442 -147 -780 -12 -123 -22 -226 -24 -227 -10 -10 -28 205 -30 337 l-1 153 -52 20 -52 19 65 130 c175 350 293 719 399 1252 25 126 45 237 45 247 0 38 16 17 37 -49z m-6404 -379 l5 -63 -44 -19 c-52 -24 -52 -17 -29 -253 78 -812 94 -1040 100 -1433 4 -286 4 -305 -10 -250 -16 65 -27 202 -51 630 -8 154 -24 368 -34 475 -45 463 -52 569 -48 681 l5 116 49 91 c27 50 49 90 50 89 1 -1 4 -30 7 -64z m2076 -5482 c11 -33 15 -101 7 -101 -2 0 -11 -3 -20 -6 -11 -4 -16 -1 -16 10 0 10 -9 16 -25 16 -34 0 -33 26 3 84 29 48 34 48 51 -3z"></path>
        </g>
    </g>
</svg>